<svg width="33" height="32" viewBox="0 0 33 32" fill="none" xmlns="http://www.w3.org/2000/svg">
<g id="Facebook" clip-path="url(#clip0_321_29)">
<path id="Vector" d="M32.9999 16.098C32.9999 7.20599 25.6522 -0.00201416 16.5897 -0.00201416C7.52299 -1.41601e-05 0.175293 7.20599 0.175293 16.1C0.175293 24.134 6.17734 30.794 14.0214 32.002V20.752H9.85734V16.1H14.0255V12.55C14.0255 8.51599 16.4768 6.28799 20.2245 6.28799C22.0214 6.28799 23.8984 6.60199 23.8984 6.60199V10.562H21.8286C19.7917 10.562 19.1558 11.804 19.1558 13.078V16.098H23.7056L22.9794 20.75H19.1538V32C26.9979 30.792 32.9999 24.132 32.9999 16.098Z" fill="black"/>
</g>
<defs>
<clipPath id="clip0_321_29">
<rect width="32.8205" height="32" fill="white" transform="translate(0.179443)"/>
</clipPath>
</defs>
</svg>
